<?xml version="1.0" encoding="UTF-8" standalone="no"?>
<!DOCTYPE svg PUBLIC "-//W3C//DTD SVG 1.1//EN"
 "http://www.w3.org/Graphics/SVG/1.1/DTD/svg11.dtd">
<!-- Generated by graphviz version 2.47.0 (20210316.0004)
 -->
<!-- Title: dependencies Pages: 1 -->
<svg width="657pt" height="284pt"
 viewBox="0.00 0.00 657.00 284.00" xmlns="http://www.w3.org/2000/svg" xmlns:xlink="http://www.w3.org/1999/xlink">
<g id="graph0" class="graph" transform="scale(1 1) rotate(0) translate(4 280)">
<title>dependencies</title>
<polygon fill="white" stroke="transparent" points="-4,4 -4,-280 653,-280 653,4 -4,4"/>
<text text-anchor="start" x="303.51" y="-42.4" font-family="Times-12" font-weight="bold" font-size="14.00">Legend</text>
<polygon fill="#ffffb3" stroke="transparent" points="90.5,-10 90.5,-30 110.5,-30 110.5,-10 90.5,-10"/>
<text text-anchor="start" x="114.13" y="-15.4" font-family="Times-12" font-size="14.00"> &#160;Declarations</text>
<polygon fill="#8dd3c7" stroke="transparent" points="203.5,-10 203.5,-30 223.5,-30 223.5,-10 203.5,-10"/>
<text text-anchor="start" x="227.23" y="-15.4" font-family="Times-12" font-size="14.00"> &#160;Module</text>
<polygon fill="#80b1d3" stroke="transparent" points="289.5,-10 289.5,-30 309.5,-30 309.5,-10 289.5,-10"/>
<text text-anchor="start" x="313.28" y="-15.4" font-family="Times-12" font-size="14.00"> &#160;Bootstrap</text>
<polygon fill="#fdb462" stroke="transparent" points="386.5,-10 386.5,-30 406.5,-30 406.5,-10 386.5,-10"/>
<text text-anchor="start" x="410.17" y="-15.4" font-family="Times-12" font-size="14.00"> &#160;Providers</text>
<polygon fill="#fb8072" stroke="transparent" points="482.5,-10 482.5,-30 502.5,-30 502.5,-10 482.5,-10"/>
<text text-anchor="start" x="506.23" y="-15.4" font-family="Times-12" font-size="14.00"> &#160;Exports</text>
<g id="clust1" class="cluster">
<title>cluster_SharedModule</title>
<polygon fill="none" stroke="black" stroke-dasharray="1,5" points="8,-70 8,-268 641,-268 641,-70 8,-70"/>
</g>
<g id="clust8" class="cluster">
<title>cluster_SharedModule_exports</title>
<polygon fill="none" stroke="black" points="150,-208 150,-260 479,-260 479,-208 150,-208"/>
</g>
<g id="clust2" class="cluster">
<title>cluster_SharedModule_declarations</title>
<polygon fill="none" stroke="black" points="16,-78 16,-130 633,-130 633,-78 16,-78"/>
</g>
<!-- AppFooterComponent -->
<g id="node1" class="node">
<title>AppFooterComponent</title>
<polygon fill="#ffffb3" stroke="black" points="624.99,-122 483.01,-122 483.01,-86 624.99,-86 624.99,-122"/>
<text text-anchor="middle" x="554" y="-99.8" font-family="Times,serif" font-size="14.00">AppFooterComponent</text>
</g>
<!-- SharedModule -->
<g id="node5" class="node">
<title>SharedModule</title>
<polygon fill="#8dd3c7" stroke="black" points="364.42,-187 361.42,-191 340.42,-191 337.42,-187 265.58,-187 265.58,-151 364.42,-151 364.42,-187"/>
<text text-anchor="middle" x="315" y="-164.8" font-family="Times,serif" font-size="14.00">SharedModule</text>
</g>
<!-- AppFooterComponent&#45;&gt;SharedModule -->
<g id="edge1" class="edge">
<title>AppFooterComponent&#45;&gt;SharedModule</title>
<path fill="none" stroke="black" d="M554,-122.11C554,-141.34 554,-169 554,-169 554,-169 374.23,-169 374.23,-169"/>
<polygon fill="black" stroke="black" points="374.23,-165.5 364.23,-169 374.23,-172.5 374.23,-165.5"/>
</g>
<!-- AppHeaderComponent -->
<g id="node2" class="node">
<title>AppHeaderComponent</title>
<polygon fill="#ffffb3" stroke="black" points="464.85,-122 319.15,-122 319.15,-86 464.85,-86 464.85,-122"/>
<text text-anchor="middle" x="392" y="-99.8" font-family="Times,serif" font-size="14.00">AppHeaderComponent</text>
</g>
<!-- AppHeaderComponent&#45;&gt;SharedModule -->
<g id="edge2" class="edge">
<title>AppHeaderComponent&#45;&gt;SharedModule</title>
<path fill="none" stroke="black" d="M341.64,-122.11C341.64,-122.11 341.64,-140.99 341.64,-140.99"/>
<polygon fill="black" stroke="black" points="338.14,-140.99 341.64,-150.99 345.14,-140.99 338.14,-140.99"/>
</g>
<!-- LoginComponent -->
<g id="node3" class="node">
<title>LoginComponent</title>
<polygon fill="#ffffb3" stroke="black" points="301.28,-122 186.72,-122 186.72,-86 301.28,-86 301.28,-122"/>
<text text-anchor="middle" x="244" y="-99.8" font-family="Times,serif" font-size="14.00">LoginComponent</text>
</g>
<!-- LoginComponent&#45;&gt;SharedModule -->
<g id="edge3" class="edge">
<title>LoginComponent&#45;&gt;SharedModule</title>
<path fill="none" stroke="black" d="M283.59,-122.11C283.59,-122.11 283.59,-140.99 283.59,-140.99"/>
<polygon fill="black" stroke="black" points="280.09,-140.99 283.59,-150.99 287.09,-140.99 280.09,-140.99"/>
</g>
<!-- RegistrarseComponent -->
<g id="node4" class="node">
<title>RegistrarseComponent</title>
<polygon fill="#ffffb3" stroke="black" points="168.3,-122 23.7,-122 23.7,-86 168.3,-86 168.3,-122"/>
<text text-anchor="middle" x="96" y="-99.8" font-family="Times,serif" font-size="14.00">RegistrarseComponent</text>
</g>
<!-- RegistrarseComponent&#45;&gt;SharedModule -->
<g id="edge4" class="edge">
<title>RegistrarseComponent&#45;&gt;SharedModule</title>
<path fill="none" stroke="black" d="M163.24,-122.11C163.24,-141.34 163.24,-169 163.24,-169 163.24,-169 255.73,-169 255.73,-169"/>
<polygon fill="black" stroke="black" points="255.73,-172.5 265.73,-169 255.73,-165.5 255.73,-172.5"/>
</g>
<!-- AppFooterComponent  -->
<g id="node6" class="node">
<title>AppFooterComponent </title>
<polygon fill="#fb8072" stroke="black" points="470.99,-252 325.01,-252 325.01,-216 470.99,-216 470.99,-252"/>
<text text-anchor="middle" x="398" y="-229.8" font-family="Times,serif" font-size="14.00">AppFooterComponent </text>
</g>
<!-- SharedModule&#45;&gt;AppFooterComponent  -->
<g id="edge5" class="edge">
<title>SharedModule&#45;&gt;AppFooterComponent </title>
<path fill="none" stroke="black" stroke-dasharray="5,2" d="M344.73,-187.11C344.73,-187.11 344.73,-205.99 344.73,-205.99"/>
<polygon fill="black" stroke="black" points="341.23,-205.99 344.73,-215.99 348.23,-205.99 341.23,-205.99"/>
</g>
<!-- AppHeaderComponent  -->
<g id="node7" class="node">
<title>AppHeaderComponent </title>
<polygon fill="#fb8072" stroke="black" points="307.85,-252 158.15,-252 158.15,-216 307.85,-216 307.85,-252"/>
<text text-anchor="middle" x="233" y="-229.8" font-family="Times,serif" font-size="14.00">AppHeaderComponent </text>
</g>
<!-- SharedModule&#45;&gt;AppHeaderComponent  -->
<g id="edge6" class="edge">
<title>SharedModule&#45;&gt;AppHeaderComponent </title>
<path fill="none" stroke="black" stroke-dasharray="5,2" d="M286.73,-187.11C286.73,-187.11 286.73,-205.99 286.73,-205.99"/>
<polygon fill="black" stroke="black" points="283.23,-205.99 286.73,-215.99 290.23,-205.99 283.23,-205.99"/>
</g>
</g>
</svg>
