<?xml version="1.0" encoding="UTF-8" standalone="no"?>
<!DOCTYPE svg PUBLIC "-//W3C//DTD SVG 1.1//EN"
 "http://www.w3.org/Graphics/SVG/1.1/DTD/svg11.dtd">
<!-- Generated by graphviz version 2.47.0 (20210316.0004)
 -->
<!-- Title: dependencies Pages: 1 -->
<svg width="786pt" height="284pt"
 viewBox="0.00 0.00 786.00 284.00" xmlns="http://www.w3.org/2000/svg" xmlns:xlink="http://www.w3.org/1999/xlink">
<g id="graph0" class="graph" transform="scale(1 1) rotate(0) translate(4 280)">
<title>dependencies</title>
<polygon fill="white" stroke="transparent" points="-4,4 -4,-280 782,-280 782,4 -4,4"/>
<text text-anchor="start" x="368.01" y="-42.4" font-family="Times-12" font-weight="bold" font-size="14.00">Legend</text>
<polygon fill="#ffffb3" stroke="transparent" points="155,-10 155,-30 175,-30 175,-10 155,-10"/>
<text text-anchor="start" x="178.63" y="-15.4" font-family="Times-12" font-size="14.00"> &#160;Declarations</text>
<polygon fill="#8dd3c7" stroke="transparent" points="268,-10 268,-30 288,-30 288,-10 268,-10"/>
<text text-anchor="start" x="291.73" y="-15.4" font-family="Times-12" font-size="14.00"> &#160;Module</text>
<polygon fill="#80b1d3" stroke="transparent" points="354,-10 354,-30 374,-30 374,-10 354,-10"/>
<text text-anchor="start" x="377.78" y="-15.4" font-family="Times-12" font-size="14.00"> &#160;Bootstrap</text>
<polygon fill="#fdb462" stroke="transparent" points="451,-10 451,-30 471,-30 471,-10 451,-10"/>
<text text-anchor="start" x="474.67" y="-15.4" font-family="Times-12" font-size="14.00"> &#160;Providers</text>
<polygon fill="#fb8072" stroke="transparent" points="547,-10 547,-30 567,-30 567,-10 547,-10"/>
<text text-anchor="start" x="570.73" y="-15.4" font-family="Times-12" font-size="14.00"> &#160;Exports</text>
<g id="clust1" class="cluster">
<title>cluster_AplicacionModule</title>
<polygon fill="none" stroke="black" stroke-dasharray="1,5" points="8,-70 8,-268 770,-268 770,-70 8,-70"/>
</g>
<g id="clust2" class="cluster">
<title>cluster_AplicacionModule_declarations</title>
<polygon fill="none" stroke="black" points="138,-78 138,-130 762,-130 762,-78 138,-78"/>
</g>
<g id="clust8" class="cluster">
<title>cluster_AplicacionModule_exports</title>
<polygon fill="none" stroke="black" points="267,-208 267,-260 403,-260 403,-208 267,-208"/>
</g>
<g id="clust7" class="cluster">
<title>cluster_AplicacionModule_imports</title>
<polygon fill="none" stroke="black" points="16,-78 16,-130 130,-130 130,-78 16,-78"/>
</g>
<!-- CatalogoDePokemonsComponent -->
<g id="node1" class="node">
<title>CatalogoDePokemonsComponent</title>
<polygon fill="#ffffb3" stroke="black" points="754.03,-122 547.97,-122 547.97,-86 754.03,-86 754.03,-122"/>
<text text-anchor="middle" x="651" y="-99.8" font-family="Times,serif" font-size="14.00">CatalogoDePokemonsComponent</text>
</g>
<!-- AplicacionModule -->
<g id="node5" class="node">
<title>AplicacionModule</title>
<polygon fill="#8dd3c7" stroke="black" points="395.47,-187 392.47,-191 371.47,-191 368.47,-187 274.53,-187 274.53,-151 395.47,-151 395.47,-187"/>
<text text-anchor="middle" x="335" y="-164.8" font-family="Times,serif" font-size="14.00">AplicacionModule</text>
</g>
<!-- CatalogoDePokemonsComponent&#45;&gt;AplicacionModule -->
<g id="edge1" class="edge">
<title>CatalogoDePokemonsComponent&#45;&gt;AplicacionModule</title>
<path fill="none" stroke="black" d="M651,-122.28C651,-143.32 651,-175 651,-175 651,-175 405.55,-175 405.55,-175"/>
<polygon fill="black" stroke="black" points="405.55,-171.5 395.55,-175 405.55,-178.5 405.55,-171.5"/>
</g>
<!-- EventsComponent -->
<g id="node2" class="node">
<title>EventsComponent</title>
<polygon fill="#ffffb3" stroke="black" points="529.94,-122 410.06,-122 410.06,-86 529.94,-86 529.94,-122"/>
<text text-anchor="middle" x="470" y="-99.8" font-family="Times,serif" font-size="14.00">EventsComponent</text>
</g>
<!-- EventsComponent&#45;&gt;AplicacionModule -->
<g id="edge2" class="edge">
<title>EventsComponent&#45;&gt;AplicacionModule</title>
<path fill="none" stroke="black" d="M470,-122.02C470,-139.37 470,-163 470,-163 470,-163 405.79,-163 405.79,-163"/>
<polygon fill="black" stroke="black" points="405.79,-159.5 395.79,-163 405.79,-166.5 405.79,-159.5"/>
</g>
<!-- HomeComponent -->
<g id="node3" class="node">
<title>HomeComponent</title>
<polygon fill="#ffffb3" stroke="black" points="392.55,-122 277.45,-122 277.45,-86 392.55,-86 392.55,-122"/>
<text text-anchor="middle" x="335" y="-99.8" font-family="Times,serif" font-size="14.00">HomeComponent</text>
</g>
<!-- HomeComponent&#45;&gt;AplicacionModule -->
<g id="edge3" class="edge">
<title>HomeComponent&#45;&gt;AplicacionModule</title>
<path fill="none" stroke="black" d="M335,-122.11C335,-122.11 335,-140.99 335,-140.99"/>
<polygon fill="black" stroke="black" points="331.5,-140.99 335,-150.99 338.5,-140.99 331.5,-140.99"/>
</g>
<!-- NewsComponent -->
<g id="node4" class="node">
<title>NewsComponent</title>
<polygon fill="#ffffb3" stroke="black" points="259.7,-122 146.3,-122 146.3,-86 259.7,-86 259.7,-122"/>
<text text-anchor="middle" x="203" y="-99.8" font-family="Times,serif" font-size="14.00">NewsComponent</text>
</g>
<!-- NewsComponent&#45;&gt;AplicacionModule -->
<g id="edge4" class="edge">
<title>NewsComponent&#45;&gt;AplicacionModule</title>
<path fill="none" stroke="black" d="M203,-122.02C203,-139.37 203,-163 203,-163 203,-163 264.41,-163 264.41,-163"/>
<polygon fill="black" stroke="black" points="264.41,-166.5 274.41,-163 264.41,-159.5 264.41,-166.5"/>
</g>
<!-- HomeComponent  -->
<g id="node7" class="node">
<title>HomeComponent </title>
<polygon fill="#fb8072" stroke="black" points="394.54,-252 275.46,-252 275.46,-216 394.54,-216 394.54,-252"/>
<text text-anchor="middle" x="335" y="-229.8" font-family="Times,serif" font-size="14.00">HomeComponent </text>
</g>
<!-- AplicacionModule&#45;&gt;HomeComponent  -->
<g id="edge6" class="edge">
<title>AplicacionModule&#45;&gt;HomeComponent </title>
<path fill="none" stroke="black" stroke-dasharray="5,2" d="M335,-187.11C335,-187.11 335,-205.99 335,-205.99"/>
<polygon fill="black" stroke="black" points="331.5,-205.99 335,-215.99 338.5,-205.99 331.5,-205.99"/>
</g>
<!-- SharedModule -->
<g id="node6" class="node">
<title>SharedModule</title>
<polygon fill="#8dd3c7" stroke="black" points="122.42,-122 119.42,-126 98.42,-126 95.42,-122 23.58,-122 23.58,-86 122.42,-86 122.42,-122"/>
<text text-anchor="middle" x="73" y="-99.8" font-family="Times,serif" font-size="14.00">SharedModule</text>
</g>
<!-- SharedModule&#45;&gt;AplicacionModule -->
<g id="edge5" class="edge">
<title>SharedModule&#45;&gt;AplicacionModule</title>
<path fill="none" stroke="black" d="M73,-122.28C73,-143.32 73,-175 73,-175 73,-175 264.23,-175 264.23,-175"/>
<polygon fill="black" stroke="black" points="264.23,-178.5 274.23,-175 264.23,-171.5 264.23,-178.5"/>
</g>
</g>
</svg>
