<?xml version="1.0" encoding="UTF-8" standalone="no"?>
<!DOCTYPE svg PUBLIC "-//W3C//DTD SVG 1.1//EN"
 "http://www.w3.org/Graphics/SVG/1.1/DTD/svg11.dtd">
<!-- Generated by graphviz version 2.47.0 (20210316.0004)
 -->
<!-- Title: dependencies Pages: 1 -->
<svg width="1220pt" height="431pt"
 viewBox="0.00 0.00 1220.00 431.00" xmlns="http://www.w3.org/2000/svg" xmlns:xlink="http://www.w3.org/1999/xlink">
<g id="graph0" class="graph" transform="scale(1 1) rotate(0) translate(4 427)">
<title>dependencies</title>
<polygon fill="white" stroke="transparent" points="-4,4 -4,-427 1216,-427 1216,4 -4,4"/>
<text text-anchor="start" x="585.01" y="-42.4" font-family="Times-12" font-weight="bold" font-size="14.00">Legend</text>
<polygon fill="#ffffb3" stroke="transparent" points="372,-10 372,-30 392,-30 392,-10 372,-10"/>
<text text-anchor="start" x="395.63" y="-15.4" font-family="Times-12" font-size="14.00"> &#160;Declarations</text>
<polygon fill="#8dd3c7" stroke="transparent" points="485,-10 485,-30 505,-30 505,-10 485,-10"/>
<text text-anchor="start" x="508.73" y="-15.4" font-family="Times-12" font-size="14.00"> &#160;Module</text>
<polygon fill="#80b1d3" stroke="transparent" points="571,-10 571,-30 591,-30 591,-10 571,-10"/>
<text text-anchor="start" x="594.78" y="-15.4" font-family="Times-12" font-size="14.00"> &#160;Bootstrap</text>
<polygon fill="#fdb462" stroke="transparent" points="668,-10 668,-30 688,-30 688,-10 668,-10"/>
<text text-anchor="start" x="691.67" y="-15.4" font-family="Times-12" font-size="14.00"> &#160;Providers</text>
<polygon fill="#fb8072" stroke="transparent" points="764,-10 764,-30 784,-30 784,-10 764,-10"/>
<text text-anchor="start" x="787.73" y="-15.4" font-family="Times-12" font-size="14.00"> &#160;Exports</text>
<g id="clust1" class="cluster">
<title>cluster_AplicacionModule</title>
<polygon fill="none" stroke="black" stroke-dasharray="1,5" points="442,-146 442,-347 1204,-347 1204,-146 442,-146"/>
</g>
<g id="clust2" class="cluster">
<title>cluster_AplicacionModule_declarations</title>
<polygon fill="none" stroke="black" points="572,-154 572,-206 1196,-206 1196,-154 572,-154"/>
</g>
<g id="clust7" class="cluster">
<title>cluster_AplicacionModule_imports</title>
<polygon fill="none" stroke="black" points="450,-154 450,-206 564,-206 564,-154 450,-154"/>
</g>
<g id="clust8" class="cluster">
<title>cluster_AplicacionModule_exports</title>
<polygon fill="none" stroke="black" points="635,-287 635,-339 771,-339 771,-287 635,-287"/>
</g>
<g id="clust11" class="cluster">
<title>cluster_AppModule</title>
<polygon fill="none" stroke="black" stroke-dasharray="1,5" points="144,-214 144,-415 434,-415 434,-214 144,-214"/>
</g>
<g id="clust12" class="cluster">
<title>cluster_AppModule_declarations</title>
<polygon fill="none" stroke="black" points="304,-222 304,-274 426,-274 426,-222 304,-222"/>
</g>
<g id="clust14" class="cluster">
<title>cluster_AppModule_imports</title>
<polygon fill="none" stroke="black" points="152,-222 152,-274 296,-274 296,-222 152,-222"/>
</g>
<g id="clust16" class="cluster">
<title>cluster_AppModule_bootstrap</title>
<polygon fill="none" stroke="black" points="302,-355 302,-407 426,-407 426,-355 302,-355"/>
</g>
<g id="clust24" class="cluster">
<title>cluster_SharedModule</title>
<polygon fill="none" stroke="black" stroke-dasharray="1,5" points="8,-70 8,-138 978,-138 978,-70 8,-70"/>
</g>
<g id="clust25" class="cluster">
<title>cluster_SharedModule_declarations</title>
<polygon fill="none" stroke="black" points="353,-78 353,-130 970,-130 970,-78 353,-78"/>
</g>
<g id="clust31" class="cluster">
<title>cluster_SharedModule_exports</title>
<polygon fill="none" stroke="black" points="16,-78 16,-130 345,-130 345,-78 16,-78"/>
</g>
<!-- CatalogoDePokemonsComponent -->
<g id="node1" class="node">
<title>CatalogoDePokemonsComponent</title>
<polygon fill="#ffffb3" stroke="black" points="1188.03,-198 981.97,-198 981.97,-162 1188.03,-162 1188.03,-198"/>
<text text-anchor="middle" x="1085" y="-175.8" font-family="Times,serif" font-size="14.00">CatalogoDePokemonsComponent</text>
</g>
<!-- AplicacionModule -->
<g id="node5" class="node">
<title>AplicacionModule</title>
<polygon fill="#8dd3c7" stroke="black" points="763.47,-266 760.47,-270 739.47,-270 736.47,-266 642.53,-266 642.53,-230 763.47,-230 763.47,-266"/>
<text text-anchor="middle" x="703" y="-243.8" font-family="Times,serif" font-size="14.00">AplicacionModule</text>
</g>
<!-- CatalogoDePokemonsComponent&#45;&gt;AplicacionModule -->
<g id="edge1" class="edge">
<title>CatalogoDePokemonsComponent&#45;&gt;AplicacionModule</title>
<path fill="none" stroke="black" d="M1085,-198.29C1085,-220.21 1085,-254 1085,-254 1085,-254 773.53,-254 773.53,-254"/>
<polygon fill="black" stroke="black" points="773.53,-250.5 763.53,-254 773.53,-257.5 773.53,-250.5"/>
</g>
<!-- EventsComponent -->
<g id="node2" class="node">
<title>EventsComponent</title>
<polygon fill="#ffffb3" stroke="black" points="963.94,-198 844.06,-198 844.06,-162 963.94,-162 963.94,-198"/>
<text text-anchor="middle" x="904" y="-175.8" font-family="Times,serif" font-size="14.00">EventsComponent</text>
</g>
<!-- EventsComponent&#45;&gt;AplicacionModule -->
<g id="edge2" class="edge">
<title>EventsComponent&#45;&gt;AplicacionModule</title>
<path fill="none" stroke="black" d="M904,-198.27C904,-216.56 904,-242 904,-242 904,-242 773.58,-242 773.58,-242"/>
<polygon fill="black" stroke="black" points="773.58,-238.5 763.58,-242 773.58,-245.5 773.58,-238.5"/>
</g>
<!-- HomeComponent -->
<g id="node3" class="node">
<title>HomeComponent</title>
<polygon fill="#ffffb3" stroke="black" points="826.55,-198 711.45,-198 711.45,-162 826.55,-162 826.55,-198"/>
<text text-anchor="middle" x="769" y="-175.8" font-family="Times,serif" font-size="14.00">HomeComponent</text>
</g>
<!-- HomeComponent&#45;&gt;AplicacionModule -->
<g id="edge3" class="edge">
<title>HomeComponent&#45;&gt;AplicacionModule</title>
<path fill="none" stroke="black" d="M737.36,-198.22C737.36,-198.22 737.36,-219.73 737.36,-219.73"/>
<polygon fill="black" stroke="black" points="733.86,-219.73 737.36,-229.73 740.86,-219.73 733.86,-219.73"/>
</g>
<!-- NewsComponent -->
<g id="node4" class="node">
<title>NewsComponent</title>
<polygon fill="#ffffb3" stroke="black" points="693.7,-198 580.3,-198 580.3,-162 693.7,-162 693.7,-198"/>
<text text-anchor="middle" x="637" y="-175.8" font-family="Times,serif" font-size="14.00">NewsComponent</text>
</g>
<!-- NewsComponent&#45;&gt;AplicacionModule -->
<g id="edge4" class="edge">
<title>NewsComponent&#45;&gt;AplicacionModule</title>
<path fill="none" stroke="black" d="M668.06,-198.22C668.06,-198.22 668.06,-219.73 668.06,-219.73"/>
<polygon fill="black" stroke="black" points="664.56,-219.73 668.06,-229.73 671.56,-219.73 664.56,-219.73"/>
</g>
<!-- HomeComponent  -->
<g id="node7" class="node">
<title>HomeComponent </title>
<polygon fill="#fb8072" stroke="black" points="762.54,-331 643.46,-331 643.46,-295 762.54,-295 762.54,-331"/>
<text text-anchor="middle" x="703" y="-308.8" font-family="Times,serif" font-size="14.00">HomeComponent </text>
</g>
<!-- AplicacionModule&#45;&gt;HomeComponent  -->
<g id="edge6" class="edge">
<title>AplicacionModule&#45;&gt;HomeComponent </title>
<path fill="none" stroke="black" stroke-dasharray="5,2" d="M703,-266.11C703,-266.11 703,-284.99 703,-284.99"/>
<polygon fill="black" stroke="black" points="699.5,-284.99 703,-294.99 706.5,-284.99 699.5,-284.99"/>
</g>
<!-- AppModule -->
<g id="node9" class="node">
<title>AppModule</title>
<polygon fill="#8dd3c7" stroke="black" points="406.66,-331 403.66,-335 382.66,-335 379.66,-331 323.34,-331 323.34,-295 406.66,-295 406.66,-331"/>
<text text-anchor="middle" x="365" y="-308.8" font-family="Times,serif" font-size="14.00">AppModule</text>
</g>
<!-- AplicacionModule&#45;&gt;AppModule -->
<g id="edge8" class="edge">
<title>AplicacionModule&#45;&gt;AppModule</title>
<path fill="none" stroke="black" d="M642.23,-254C564.03,-254 438.13,-254 438.13,-254 438.13,-254 438.13,-307 438.13,-307 438.13,-307 416.69,-307 416.69,-307"/>
<polygon fill="black" stroke="black" points="416.69,-303.5 406.69,-307 416.69,-310.5 416.69,-303.5"/>
</g>
<!-- SharedModule -->
<g id="node6" class="node">
<title>SharedModule</title>
<polygon fill="#8dd3c7" stroke="black" points="556.42,-198 553.42,-202 532.42,-202 529.42,-198 457.58,-198 457.58,-162 556.42,-162 556.42,-198"/>
<text text-anchor="middle" x="507" y="-175.8" font-family="Times,serif" font-size="14.00">SharedModule</text>
</g>
<!-- SharedModule&#45;&gt;AplicacionModule -->
<g id="edge5" class="edge">
<title>SharedModule&#45;&gt;AplicacionModule</title>
<path fill="none" stroke="black" d="M523.4,-198.27C523.4,-216.56 523.4,-242 523.4,-242 523.4,-242 632.2,-242 632.2,-242"/>
<polygon fill="black" stroke="black" points="632.2,-245.5 642.2,-242 632.2,-238.5 632.2,-245.5"/>
</g>
<!-- SharedModule&#45;&gt;AppModule -->
<g id="edge10" class="edge">
<title>SharedModule&#45;&gt;AppModule</title>
<path fill="none" stroke="black" d="M490.6,-198.17C490.6,-235.85 490.6,-319 490.6,-319 490.6,-319 416.82,-319 416.82,-319"/>
<polygon fill="black" stroke="black" points="416.82,-315.5 406.82,-319 416.82,-322.5 416.82,-315.5"/>
</g>
<!-- AppFooterComponent  -->
<g id="node16" class="node">
<title>AppFooterComponent </title>
<polygon fill="#fb8072" stroke="black" points="336.99,-122 191.01,-122 191.01,-86 336.99,-86 336.99,-122"/>
<text text-anchor="middle" x="264" y="-99.8" font-family="Times,serif" font-size="14.00">AppFooterComponent </text>
</g>
<!-- SharedModule&#45;&gt;AppFooterComponent  -->
<g id="edge16" class="edge">
<title>SharedModule&#45;&gt;AppFooterComponent </title>
<path fill="none" stroke="black" stroke-dasharray="5,2" d="M457.62,-174C403.57,-174 324.51,-174 324.51,-174 324.51,-174 324.51,-132.03 324.51,-132.03"/>
<polygon fill="black" stroke="black" points="328.01,-132.03 324.51,-122.03 321.01,-132.03 328.01,-132.03"/>
</g>
<!-- AppHeaderComponent  -->
<g id="node17" class="node">
<title>AppHeaderComponent </title>
<polygon fill="#fb8072" stroke="black" points="173.85,-122 24.15,-122 24.15,-86 173.85,-86 173.85,-122"/>
<text text-anchor="middle" x="99" y="-99.8" font-family="Times,serif" font-size="14.00">AppHeaderComponent </text>
</g>
<!-- SharedModule&#45;&gt;AppHeaderComponent  -->
<g id="edge17" class="edge">
<title>SharedModule&#45;&gt;AppHeaderComponent </title>
<path fill="none" stroke="black" stroke-dasharray="5,2" d="M457.51,-186C363.11,-186 166.64,-186 166.64,-186 166.64,-186 166.64,-132.2 166.64,-132.2"/>
<polygon fill="black" stroke="black" points="170.14,-132.2 166.64,-122.2 163.14,-132.2 170.14,-132.2"/>
</g>
<!-- AppComponent -->
<g id="node8" class="node">
<title>AppComponent</title>
<polygon fill="#ffffb3" stroke="black" points="417.94,-266 312.06,-266 312.06,-230 417.94,-230 417.94,-266"/>
<text text-anchor="middle" x="365" y="-243.8" font-family="Times,serif" font-size="14.00">AppComponent</text>
</g>
<!-- AppComponent&#45;&gt;AppModule -->
<g id="edge7" class="edge">
<title>AppComponent&#45;&gt;AppModule</title>
<path fill="none" stroke="black" d="M365,-266.11C365,-266.11 365,-284.99 365,-284.99"/>
<polygon fill="black" stroke="black" points="361.5,-284.99 365,-294.99 368.5,-284.99 361.5,-284.99"/>
</g>
<!-- AppComponent  -->
<g id="node11" class="node">
<title>AppComponent </title>
<polygon fill="#80b1d3" stroke="black" points="418.44,-399 309.56,-399 309.56,-363 418.44,-363 418.44,-399"/>
<text text-anchor="middle" x="364" y="-376.8" font-family="Times,serif" font-size="14.00">AppComponent </text>
</g>
<!-- AppModule&#45;&gt;AppComponent  -->
<g id="edge11" class="edge">
<title>AppModule&#45;&gt;AppComponent </title>
<path fill="none" stroke="black" stroke-dasharray="1,5" d="M365,-331.22C365,-331.22 365,-352.73 365,-352.73"/>
<polygon fill="black" stroke="black" points="361.5,-352.73 365,-362.73 368.5,-352.73 361.5,-352.73"/>
</g>
<!-- AppRoutingModule -->
<g id="node10" class="node">
<title>AppRoutingModule</title>
<polygon fill="#8dd3c7" stroke="black" points="288.27,-266 285.27,-270 264.27,-270 261.27,-266 159.73,-266 159.73,-230 288.27,-230 288.27,-266"/>
<text text-anchor="middle" x="224" y="-243.8" font-family="Times,serif" font-size="14.00">AppRoutingModule</text>
</g>
<!-- AppRoutingModule&#45;&gt;AppModule -->
<g id="edge9" class="edge">
<title>AppRoutingModule&#45;&gt;AppModule</title>
<path fill="none" stroke="black" d="M224,-266.11C224,-285.34 224,-313 224,-313 224,-313 313.08,-313 313.08,-313"/>
<polygon fill="black" stroke="black" points="313.08,-316.5 323.08,-313 313.08,-309.5 313.08,-316.5"/>
</g>
<!-- AppFooterComponent -->
<g id="node12" class="node">
<title>AppFooterComponent</title>
<polygon fill="#ffffb3" stroke="black" points="961.99,-122 820.01,-122 820.01,-86 961.99,-86 961.99,-122"/>
<text text-anchor="middle" x="891" y="-99.8" font-family="Times,serif" font-size="14.00">AppFooterComponent</text>
</g>
<!-- AppFooterComponent&#45;&gt;SharedModule -->
<g id="edge12" class="edge">
<title>AppFooterComponent&#45;&gt;SharedModule</title>
<path fill="none" stroke="black" d="M835.53,-122.04C835.53,-134.56 835.53,-149 835.53,-149 835.53,-149 548.06,-149 548.06,-149 548.06,-149 548.06,-151.97 548.06,-151.97"/>
<polygon fill="black" stroke="black" points="544.56,-151.97 548.06,-161.97 551.56,-151.97 544.56,-151.97"/>
</g>
<!-- AppHeaderComponent -->
<g id="node13" class="node">
<title>AppHeaderComponent</title>
<polygon fill="#ffffb3" stroke="black" points="801.85,-122 656.15,-122 656.15,-86 801.85,-86 801.85,-122"/>
<text text-anchor="middle" x="729" y="-99.8" font-family="Times,serif" font-size="14.00">AppHeaderComponent</text>
</g>
<!-- AppHeaderComponent&#45;&gt;SharedModule -->
<g id="edge13" class="edge">
<title>AppHeaderComponent&#45;&gt;SharedModule</title>
<path fill="none" stroke="black" d="M674.84,-122.24C674.84,-129.43 674.84,-136 674.84,-136 674.84,-136 539.91,-136 539.91,-136 539.91,-136 539.91,-151.85 539.91,-151.85"/>
<polygon fill="black" stroke="black" points="536.41,-151.85 539.91,-161.85 543.41,-151.85 536.41,-151.85"/>
</g>
<!-- LoginComponent -->
<g id="node14" class="node">
<title>LoginComponent</title>
<polygon fill="#ffffb3" stroke="black" points="638.28,-122 523.72,-122 523.72,-86 638.28,-86 638.28,-122"/>
<text text-anchor="middle" x="581" y="-99.8" font-family="Times,serif" font-size="14.00">LoginComponent</text>
</g>
<!-- LoginComponent&#45;&gt;SharedModule -->
<g id="edge14" class="edge">
<title>LoginComponent&#45;&gt;SharedModule</title>
<path fill="none" stroke="black" d="M531.76,-122.01C531.76,-122.01 531.76,-151.85 531.76,-151.85"/>
<polygon fill="black" stroke="black" points="528.26,-151.85 531.76,-161.85 535.26,-151.85 528.26,-151.85"/>
</g>
<!-- RegistrarseComponent -->
<g id="node15" class="node">
<title>RegistrarseComponent</title>
<polygon fill="#ffffb3" stroke="black" points="505.3,-122 360.7,-122 360.7,-86 505.3,-86 505.3,-122"/>
<text text-anchor="middle" x="433" y="-99.8" font-family="Times,serif" font-size="14.00">RegistrarseComponent</text>
</g>
<!-- RegistrarseComponent&#45;&gt;SharedModule -->
<g id="edge15" class="edge">
<title>RegistrarseComponent&#45;&gt;SharedModule</title>
<path fill="none" stroke="black" d="M481.47,-122.01C481.47,-122.01 481.47,-151.85 481.47,-151.85"/>
<polygon fill="black" stroke="black" points="477.97,-151.85 481.47,-161.85 484.97,-151.85 477.97,-151.85"/>
</g>
</g>
</svg>
